<?xml version="1.0" encoding="utf-8"?>
<!-- Generator: Adobe Illustrator 27.5.0, SVG Export Plug-In . SVG Version: 6.00 Build 0)  -->
<svg version="1.1" id="Layer_1" xmlns="http://www.w3.org/2000/svg" xmlns:xlink="http://www.w3.org/1999/xlink" x="0px" y="0px"
	 viewBox="0 0 4000 4000" style="enable-background:new 0 0 4000 4000;" xml:space="preserve">
<g>
	<g>
		<rect style="fill:#F3E1FF;" width="4000" height="4000"/>
	</g>
	<g>
		<g style="opacity:0.25;">
			<ellipse style="fill:#6B1A4E;" cx="2051.648" cy="3406.343" rx="1243.333" ry="109.988"/>
		</g>
		<g>
			<g>
				<path style="fill:#FFFFFF;" d="M2464.159,1148.663c0,0-353.029,224.837-779.834,36.512c0,0,0.351-134.912,108.682-248.61
					c13.441-14.093,28.537-27.835,45.489-40.975c20.512-15.898,40.273-32.148,58.78-48.599l7.523-6.721
					c109.083-99.053,170.271-204.024,71.82-278.702c-7.172-5.416-4.664-16.701,4.213-18.306
					c43.483-7.874,143.238-14.795,256.534,52.811l0.05,0.05c26.08,15.548,52.862,35.007,79.844,59.331
					c82.954,74.779,121.02,182.006,137.771,277.398C2475.543,1049.611,2464.159,1148.663,2464.159,1148.663z"/>
			</g>
			<g>
				<path style="fill:#FF395E;" d="M2455.031,932.854c-1.003,5.166-1.806,9.88-2.458,13.993
					c-10.733,69.713-58.128,126.035-58.128,126.035c-12.488-45.589-72.371-103.667-72.371-103.667
					c-5.366,61.638-38.468,117.058-38.468,117.058c-5.366-26.782-34.856-76.885-34.856-76.885
					c-26.782,59.03-58.98,74.227-58.98,74.227c-19.66-59.883-50.956-113.547-50.956-113.547
					c-7.122,92.082-84.609,149.608-84.609,149.608c-2.357-59.632-39.32-147.802-39.32-147.802
					c-24.425,57.777-81.048,121.572-81.048,121.572c-13.792-57.526-48.248-108.482-48.248-108.482l-111.441,84.609
					c-8.325-51.658,9.078-107.228,18.858-133.007c13.441-14.093,28.537-27.835,45.489-40.975
					c146.548-113.597,255.18-245.2,138.122-334.021c-7.172-5.416-4.664-16.701,4.213-18.306
					c53.463-9.68,192.137-17.905,336.428,112.193C2400.213,730.234,2438.28,837.462,2455.031,932.854z"/>
			</g>
			<g style="opacity:0.25;">
				<path style="fill:#6B1A4E;" d="M2427.196,1156.387c0,0-88.019,56.071-229.301,88.771
					c-137.771,25.879-317.922,26.331-513.57-59.984c0,0,0.351-134.912,108.682-248.61c13.441-14.093,28.537-27.835,45.489-40.975
					c20.512-15.898,40.273-32.148,58.78-48.599c0,0-173.781,242.893,178.546,282.213c277.298,30.894,334.272-228.75,254.528-410.255
					c49.15,67.356,74.779,148.002,87.718,221.628C2438.58,1057.334,2427.196,1156.387,2427.196,1156.387z"/>
			</g>
			<g>
				<path style="fill:#000072;" d="M2036.527,1272.637c-105.615,0-228.003-18.94-357.266-75.967
					c-4.551-2.009-7.485-6.526-7.475-11.504c0.02-7.209,2.266-177.944,159.038-299.478
					c119.878-92.927,183.066-174.587,182.744-236.152c-0.156-29.851-14.722-55.354-44.536-77.966
					c-7.266-5.515-10.6-14.778-8.491-23.596c2.119-8.87,9.033-15.396,18.047-17.034c54.873-9.968,198.521-18.701,347.085,115.205
					c187.09,168.638,152.524,490.361,150.962,503.975c-0.43,3.755-2.534,7.114-5.723,9.146
					c-3.677,2.341-91.709,57.737-233.789,90.508C2181.815,1262.53,2113.636,1272.637,2036.527,1272.637z M1697.279,1177.166
					c213.799,91.897,407.642,77.217,533.232,48.396c119.238-27.363,201.045-72.219,221.777-84.351
					c3.789-44.995,20.464-328.733-143.403-476.438c-135.84-122.439-266.035-118.843-320.664-110.042
					c33.271,26.631,50.234,58.462,50.425,94.673c0.371,70.652-64.385,156.819-192.461,256.103
					C1718.075,1004.823,1699.848,1142.623,1697.279,1177.166z"/>
			</g>
		</g>
		<g>
			<g>
				<path style="fill:#FFFFFF;" d="M1526.141,2002.892c-464.32-54.617-652.595-227.245-698.937-436.685
					c-15.648-70.114-15.297-144.391-4.062-219.722c35.659-239.833,171.675-334.221,225.038-362.508
					c10.131-5.417,22.72,0.702,24.475,12.087c20.413,134.311,95.041,210.895,177.844,275.843
					c89.875,70.616,189.429,127.59,239.432,230.103C1588.431,1703.978,1526.141,2002.892,1526.141,2002.892z"/>
			</g>
			<g>
				<path style="fill:#FF395E;" d="M1245.032,1330.988c-82.252-11.335-122.173-21.466-122.173-21.466
					c26.832,70.917,62.541,132.906,62.541,132.906c-103.667-28.036-135.865-79.292-135.865-79.292
					c10.131,51.859,0,138.273,0,138.273c-66.704-60.786-106.626-119.766-106.626-119.766
					c-4.765,69.111-11.335,154.924-11.335,154.924c-25.628-57.827-69.111-101.31-69.111-101.31
					c-13.391,54.216-34.355,127.741-35.258,130.95c-15.648-70.114-15.297-144.391-4.062-219.722
					c35.659-239.833,171.675-334.221,225.038-362.508c10.131-5.417,22.72,0.702,24.475,12.087
					c20.413,134.311,95.041,210.895,177.844,275.843l-35.86-12.438L1245.032,1330.988z"/>
			</g>
			<g style="opacity:0.25;">
				<path style="fill:#6B1A4E;" d="M1540.034,1904.073c-5.718,59.582-13.893,98.802-13.893,98.802
					c-97.699-11.485-183.16-28.236-257.638-49.401c-0.652-0.151-1.304-0.351-1.906-0.552
					c-258.892-79.794-376.1-216.863-411.157-375.247c-15.447-69.262-15.096-142.636-4.012-217.064
					c28.888-194.394,124.581-292.093,187.122-336.328c-39.17,56.021-74.528,133.558-90.276,239.583
					c-11.234,75.33-11.585,149.607,4.063,219.722C994.766,1675.424,1156.31,1836.416,1540.034,1904.073z"/>
			</g>
			<g>
				<path style="fill:#000072;" d="M1526.156,2015.448c-0.488,0-0.977-0.029-1.475-0.085
					c-307.051-36.123-518.779-127.703-629.302-272.19c-79.971-104.551-108.452-238.64-84.658-398.547
					c36.299-243.916,174.038-341.228,231.572-371.743c8.423-4.463,18.53-4.575,27.041-0.293c8.418,4.236,14.287,12.31,15.698,21.597
					c24.136,158.635,127.764,235.186,227.979,309.214c72.222,53.347,146.9,108.511,188.174,193.113
					c99.253,203.459,39.814,496.575,37.236,508.953C1537.196,2011.336,1532.02,2015.448,1526.156,2015.448z M1056.083,994.51
					c-0.615,0-1.309,0.137-2.041,0.525c-54.17,28.73-183.901,120.671-218.516,353.281c-22.759,152.942,4.077,280.664,79.771,379.619
					c104.863,137.09,306.939,224.919,600.684,261.121c9.868-56.008,47.485-307.686-37.334-481.548
					c-38.579-79.08-107.529-130.015-180.532-183.94c-104.312-77.053-212.178-156.731-237.876-325.613c0-0.002,0-0.002,0-0.005
					c-0.254-1.67-1.323-2.532-2.173-2.959C1057.626,994.769,1056.928,994.51,1056.083,994.51z"/>
			</g>
		</g>
		<g>
			<g>
				<path style="fill:#FFFFFF;" d="M1684.325,2655.821c0,0-197.404-212.098-473.899-200.011
					c-196.701,8.627-364.514-24.073-490.449-131.903c-51.056-43.634-95.241-99.655-131.653-170.22
					c-98.351-190.532-23.321-412.962,14.745-502.185c5.918-13.792,25.428-13.993,31.597-0.251
					c31.496,70.215,113.096,156.98,248.61,174.985c5.768,0.752,11.636,1.404,17.604,1.906
					c80.647,6.921,159.688,16.902,221.276,25.628c124.982,17.754,244.447,64.848,345.858,140.028
					C1830.421,2262.368,1684.325,2655.821,1684.325,2655.821z"/>
			</g>
			<g>
				<path style="fill:#FF395E;" d="M831.166,1924.686c0,0,54.517,31.296,75.531,62.591l-110.387,9.83
					c0,0,42.881,32.148,124.23,90.276c0,0-88.47,12.488-176.088,13.391c0,0,31.296,106.375,114.4,154.623
					c0,0-90.276,17.002-157.281-29.49c0,0,3.059,50.705,18.406,98c-51.056-43.634-95.241-99.655-131.653-170.22
					c-98.351-190.532-23.321-412.962,14.745-502.185c5.918-13.792,25.428-13.993,31.597-0.251
					c31.496,70.215,113.096,156.98,248.61,174.985c0,0,45.339,11.285,98.952,69.613
					C982.228,1895.848,915.173,1895.196,831.166,1924.686z"/>
			</g>
			<g style="opacity:0.25;">
				<path style="fill:#6B1A4E;" d="M1694.255,2622.419c-58.88-53.564-229.853-188.226-451.731-178.546
					c-196.701,8.626-364.514-24.073-490.449-131.903c-51.056-43.634-95.241-99.655-131.652-170.22
					c-78.942-152.968-46.141-326.498-10.432-435.18c-4.614,79.744,5.868,166.308,47.595,247.105
					c36.411,70.566,80.596,126.587,131.652,170.22c125.935,107.83,293.748,140.53,490.449,131.903
					c200.613-8.777,359.599,100.457,431.72,161.093C1718.68,2506.465,1704.687,2581.494,1694.255,2622.419z"/>
			</g>
			<g>
				<path style="fill:#000072;" d="M1684.325,2668.37c-3.442,0-6.777-1.421-9.175-3.992
					c-1.938-2.078-196.953-207.803-464.155-196.03c-316.504,13.879-517.842-84.285-633.794-308.896
					c-101.045-195.745-23.638-423.86,14.331-512.849c4.712-11.047,15.103-17.976,27.109-18.088
					c12.212-0.151,22.554,6.641,27.476,17.612c33.296,74.233,117.988,157.754,255.84,169.534
					c68.145,5.825,142.817,14.473,221.948,25.698c129.028,18.301,250.61,67.534,351.597,142.375
					c191.055,141.589,240.908,317.952,249.087,440.969c8.852,133.083-26.982,231.377-28.511,235.496
					c-1.514,4.075-5.034,7.075-9.297,7.927C1685.966,2668.289,1685.14,2668.37,1684.325,2668.37z M1233.666,2442.774
					c226.865,0,395.039,142.112,444.883,189.58c9.756-34.473,27.407-112.314,20.952-206.992
					c-11.646-170.811-92.036-312.617-238.931-421.482c-97.642-72.363-215.278-119.978-340.19-137.693
					c-78.667-11.162-152.876-19.756-220.562-25.542c-148.691-12.708-240.366-103.513-276.582-184.255l0,0
					c-1.108-2.466-3.135-2.859-4.365-2.8c-1.147,0.012-3.228,0.396-4.272,2.852c-36.577,85.728-111.27,305.227-15.112,491.506
					c110.933,214.893,304.878,308.738,610.415,295.347C1217.89,2442.945,1225.814,2442.774,1233.666,2442.774z"/>
			</g>
		</g>
		<g>
			<g>
				<path style="fill:#FFFFFF;" d="M1703.433,2845.301c-83.806,141.833-500.129,183.561-500.129,183.561
					c-62.09,3.862-117.911,2.658-168.064-2.708c-454.97-48.541-444.625-440.468-433.639-544.87
					c1.073-10.195,13.543-14.453,20.744-7.156c154.319,156.389,247.79,64.693,419.215,0.941c0.05-0.05,0.1-0.05,0.1-0.05
					c72.822-27.083,159.688-49.1,271.279-44.938C1697.064,2444.375,1703.433,2845.301,1703.433,2845.301z"/>
			</g>
			<g>
				<path style="fill:#FF395E;" d="M873.195,2856.033c0,0,57.175,49.15,189.479,58.127c0,0-19.66,41.025-117.108,49.552
					c0,0.501,0.351,33.502,89.674,62.441c-454.97-48.541-444.625-440.468-433.639-544.87c1.073-10.195,13.543-14.453,20.744-7.156
					c154.319,156.389,247.79,64.693,419.215,0.941c-3.16,1.906-104.519,63.344-139.727,156.579
					c2.207-1.605,65.601-46.091,188.526,24.174c0,0-84.909,1.806-136.718,40.223c0,0,46.442,4.464,89.373,17.905
					c0,0-29.49,26.782-79.543,39.32c0,0,55.419,19.66,95.643,23.221C1059.113,2776.49,1026.915,2859.644,873.195,2856.033z"/>
			</g>
			<g style="opacity:0.25;">
				<path style="fill:#6B1A4E;" d="M1703.433,2845.301c-3.611,6.119-7.874,12.087-12.689,17.854
					c-133.257,105.623-458.853,138.273-458.853,138.273c-62.09,3.862-117.911,2.658-168.064-2.708
					c-313.308-33.402-405.941-229.702-429.664-382.82c46.943,123.477,151.513,243.544,377.404,269.022
					c47.395,5.366,100.206,6.57,158.936,2.708c0,0,393.754-41.728,472.996-183.561c0,0-0.652-43.834-14.695-103.065
					C1701.327,2715.554,1703.433,2845.301,1703.433,2845.301z"/>
			</g>
			<g>
				<path style="fill:#000072;" d="M1132.689,3043.616c-186.968,0-328.623-49.265-422.07-146.829
					c-134.458-140.374-129.751-338.245-121.484-416.802c1.011-9.561,7.275-17.471,16.348-20.647
					c9.126-3.196,18.999-0.901,25.771,5.969c119.795,121.404,198.423,86.897,317.456,34.673
					c89.858-39.426,201.694-88.489,364.697-82.427c204.639,7.617,303.34,123.857,350.103,220.029
					c50.249,103.335,52.397,203.333,52.466,207.539c0.034,2.312-0.566,4.59-1.743,6.58
					c-86.059,145.608-492.432,187.898-509.688,189.626C1179.901,3042.855,1155.936,3043.616,1132.689,3043.616z M613.983,2483.507
					c-7.842,75.72-11.934,263.687,114.746,395.935c99.731,104.121,259.16,150.176,473.789,136.897
					c3.599-0.369,404.307-42.017,488.247-174.333c-0.879-18.457-7.231-106.321-50.171-194.204
					c-63.721-130.42-174.116-199.456-328.125-205.188c-157.28-5.835-266.167,41.934-353.686,80.332
					C839.701,2575.198,745.594,2616.488,613.983,2483.507z"/>
			</g>
		</g>
		<g>
			<g>
				<path style="fill:#FFFFFF;" d="M1832.528,2974.395c0,0,2.257,436.685-473.899,441.751c-8.025,0.15-16.2,0.1-24.475-0.05
					c-373.906-7.38-458.077-209.714-476.348-283.336c-2.697-10.87,7.697-20.421,18.308-16.837
					c47.351,15.993,159.356,35.236,261.639-87.061c16.852-20.112,35.709-40.424,56.473-59.933c0-0.05,0-0.05,0-0.05
					C1338.869,2832.612,1574.037,2732.104,1832.528,2974.395z"/>
			</g>
			<g>
				<path style="fill:#FF395E;" d="M1358.629,3416.146c-8.025,0.15-16.2,0.1-24.475-0.05
					c-373.906-7.38-458.077-209.714-476.348-283.336c-2.697-10.87,7.697-20.421,18.308-16.837
					c47.351,15.993,159.356,35.236,261.639-87.061c16.84-20.098,35.683-40.396,56.43-59.894c0.007-0.007,0.029-0.017,0.024-0.008
					c-1.5,2.631-37.049,65.511-49.333,131.971c0,0.001-0.001,0.002,0,0.001c0.018-0.013,27.751-19.661,80.444-24.124
					c0.001,0,0.002-0.001,0.002,0c-0.028,0.032-48.251,55.426-69.711,87.615c-0.001,0.001-0.004,0.003-0.002,0.003
					c0.072-0.01,63.537-8.92,141.231,4.463c0.001,0,0.002,0,0.001,0c-0.03,0.018-85.817,51.462-117.058,80.696c0,0,0,0,0,0
					c0.012,0.004,49.157,15.848,129.59,17.604c0.004,0,0.009-0.002,0.006,0c-0.14,0.111-72.457,57.227-113.543,63.042
					c-0.002,0-0.005-0.001-0.004,0.001C1195.881,3330.317,1229.379,3387.028,1358.629,3416.146z"/>
			</g>
			<g style="opacity:0.25;">
				<path style="fill:#6B1A4E;" d="M1832.528,2974.395c0,0,0.301,59.332-23.171,134.511
					c-49.501,122.575-165.406,265.913-437.036,268.822c-8.025,0.151-16.199,0.101-24.475-0.05
					c-272.633-5.366-391.246-114.4-442.553-201.616c59.281,55.219,159.237,104.519,327.501,107.83
					c7.071,0.15,14.093,0.15,21.014,0.05c409.051-4.364,407.145-379.51,407.145-379.51c-32.198-30.192-63.946-54.115-95.141-72.722
					C1649.619,2844.448,1739.594,2887.279,1832.528,2974.395z"/>
			</g>
			<g>
				<path style="fill:#000072;" d="M1350.224,3428.787c-5.391,0-10.82-0.054-16.299-0.161
					c-163.745-3.223-291.435-43.552-379.526-119.868c-72.983-63.232-99.478-135.505-108.774-172.959l0,0
					c-2.354-9.47,0.645-19.46,7.822-26.074c7.188-6.619,17.397-8.794,26.66-5.667c51.958,17.542,153.252,30.049,248.022-83.25
					c60.342-72.139,187.271-194.714,359.434-205.151c120.894-7.278,239.854,43,353.56,149.597c2.515,2.356,3.945,5.64,3.965,9.082
					c0.039,7.847-0.557,193.662-135.361,326.528C1623.563,3385.787,1502.67,3428.787,1350.224,3428.787z M871.512,3127.711
					c-0.303,0-0.684,0.098-1.074,0.459c-0.708,0.654-0.542,1.328-0.479,1.584v0.002c8.584,34.573,33.096,101.338,100.859,160.046
					c83.54,72.375,205.874,110.647,363.604,113.75c152.993,3.03,273.296-37.485,357.505-120.359
					c115.078-113.257,126.772-272.581,127.949-303.455c-107.207-99.08-218.462-145.845-330.796-139.05
					c-162.783,9.868-283.965,127.166-341.714,196.208c-108.232,129.399-228.569,106.692-275.278,90.92
					C871.971,3127.779,871.766,3127.711,871.512,3127.711z"/>
			</g>
		</g>
		<g>
			<g>
				<path style="fill:#FFFFFF;" d="M2573.844,2002.892c464.32-54.617,652.595-227.245,698.937-436.685
					c15.648-70.114,15.297-144.391,4.062-219.722c-35.659-239.833-171.675-334.221-225.038-362.508
					c-10.131-5.417-22.72,0.702-24.475,12.087c-20.412,134.311-95.041,210.895-177.844,275.843
					c-89.875,70.616-189.429,127.59-239.432,230.103C2511.554,1703.978,2573.844,2002.892,2573.844,2002.892z"/>
			</g>
			<g>
				<path style="fill:#FF395E;" d="M2854.954,1330.988c82.251-11.335,122.173-21.466,122.173-21.466
					c-26.832,70.917-62.541,132.906-62.541,132.906c103.667-28.036,135.865-79.292,135.865-79.292
					c-10.131,51.859,0,138.273,0,138.273c66.704-60.786,106.626-119.766,106.626-119.766
					c4.765,69.111,11.335,154.924,11.335,154.924c25.628-57.827,69.111-101.31,69.111-101.31
					c13.391,54.216,34.355,127.741,35.258,130.95c15.648-70.114,15.297-144.391,4.062-219.722
					c-35.659-239.833-171.675-334.221-225.038-362.508c-10.131-5.417-22.72,0.702-24.475,12.087
					c-20.412,134.311-95.041,210.895-177.844,275.843l35.86-12.438L2854.954,1330.988z"/>
			</g>
			<g style="opacity:0.25;">
				<path style="fill:#6B1A4E;" d="M2559.951,1904.073c5.718,59.582,13.893,98.802,13.893,98.802
					c97.699-11.485,183.16-28.236,257.638-49.401c0.652-0.151,1.304-0.351,1.906-0.552
					c258.891-79.794,376.1-216.863,411.157-375.247c15.447-69.262,15.096-142.636,4.012-217.064
					c-28.888-194.394-124.581-292.093-187.122-336.328c39.17,56.021,74.528,133.558,90.276,239.583
					c11.234,75.33,11.585,149.607-4.063,219.722C3105.219,1675.424,2943.675,1836.416,2559.951,1904.073z"/>
			</g>
			<g>
				<path style="fill:#000072;" d="M2573.832,2015.448c-5.864,0-11.04-4.111-12.266-9.98
					c-2.578-12.38-62.021-305.496,37.236-508.955c41.274-84.602,115.952-139.766,188.169-193.113
					c100.215-74.028,203.843-150.579,227.979-309.219l0,0c1.416-9.289,7.29-17.361,15.708-21.594
					c8.506-4.28,18.613-4.17,27.031,0.295c57.534,30.515,195.273,127.827,231.577,371.743
					c23.794,159.91-4.692,293.999-84.663,398.55c-110.522,144.487-322.251,236.064-629.297,272.188
					C2574.808,2015.418,2574.32,2015.448,2573.832,2015.448z M3039.745,997.955c-25.698,168.882-133.56,248.56-237.871,325.615
					c-73.003,53.923-141.953,104.858-180.532,183.938c-84.819,173.862-47.202,425.54-37.334,481.548
					c293.74-36.201,495.815-124.028,600.679-261.118c75.693-98.955,102.534-226.68,79.775-379.622
					c-34.619-232.61-164.351-324.551-218.521-353.281c-1.738-0.923-3.271-0.43-4.019-0.046
					C3041.068,995.418,3039.999,996.282,3039.745,997.955L3039.745,997.955z"/>
			</g>
		</g>
		<g>
			<g>
				<path style="fill:#FFFFFF;" d="M2415.66,2655.821c0,0,197.404-212.098,473.899-200.011
					c196.701,8.627,364.514-24.073,490.449-131.903c51.056-43.634,95.241-99.655,131.653-170.22
					c98.351-190.532,23.321-412.962-14.745-502.185c-5.918-13.792-25.428-13.993-31.596-0.251
					c-31.497,70.215-113.096,156.98-248.61,174.985c-5.768,0.752-11.636,1.404-17.604,1.906
					c-80.646,6.921-159.688,16.902-221.276,25.628c-124.982,17.754-244.447,64.848-345.857,140.028
					C2269.564,2262.368,2415.66,2655.821,2415.66,2655.821z"/>
			</g>
			<g>
				<path style="fill:#FF395E;" d="M3268.819,1924.686c0,0-54.517,31.296-75.531,62.591l110.387,9.83
					c0,0-42.881,32.148-124.229,90.276c0,0,88.47,12.488,176.088,13.391c0,0-31.296,106.375-114.4,154.623
					c0,0,90.276,17.002,157.281-29.49c0,0-3.059,50.705-18.406,98c51.056-43.634,95.241-99.655,131.653-170.22
					c98.351-190.532,23.321-412.962-14.745-502.185c-5.918-13.792-25.428-13.993-31.596-0.251
					c-31.497,70.215-113.096,156.98-248.61,174.985c0,0-45.339,11.285-98.952,69.613
					C3117.757,1895.848,3184.812,1895.196,3268.819,1924.686z"/>
			</g>
			<g style="opacity:0.25;">
				<path style="fill:#6B1A4E;" d="M2405.73,2622.419c58.88-53.564,229.853-188.226,451.731-178.546
					c196.701,8.626,364.514-24.073,490.449-131.903c51.056-43.634,95.241-99.655,131.653-170.22
					c78.941-152.968,46.141-326.498,10.432-435.18c4.614,79.744-5.868,166.308-47.595,247.105
					c-36.411,70.566-80.596,126.587-131.653,170.22c-125.935,107.83-293.748,140.53-490.449,131.903
					c-200.613-8.777-359.599,100.457-431.72,161.093C2381.305,2506.465,2395.298,2581.494,2405.73,2622.419z"/>
			</g>
			<g>
				<path style="fill:#000072;" d="M2415.658,2668.37c-0.815,0-1.641-0.081-2.456-0.244c-4.263-0.852-7.783-3.853-9.297-7.927
					c-1.528-4.119-37.363-102.412-28.511-235.496c8.179-123.018,58.032-299.38,249.087-440.969
					c100.986-74.841,222.568-124.072,351.597-142.375c79.141-11.226,153.818-19.873,221.953-25.698
					c137.852-11.78,222.544-95.3,255.84-169.534c4.917-10.972,15.527-17.698,27.471-17.612c12.012,0.11,22.402,7.041,27.114,18.088
					c37.969,88.994,115.366,317.119,14.326,512.849c-108.799,210.752-292.856,310.171-576.558,310.181
					c-18.657,0-37.705-0.43-57.231-1.284c-267.417-11.77-462.222,193.95-464.16,196.03
					C2422.435,2666.949,2419.1,2668.37,2415.658,2668.37z M3481.063,1653.59c-1.167,0-3.223,0.374-4.312,2.795
					c0,0.002,0,0.002,0,0.005c-36.216,80.742-127.891,171.548-276.582,184.255c-67.676,5.786-141.885,14.38-220.566,25.542
					c-124.912,17.717-242.549,65.33-340.19,137.693c-146.895,108.865-227.285,250.671-238.931,421.482
					c-6.455,94.678,11.196,172.522,20.957,206.992c51.563-49.109,229.893-199.504,468.647-189.06
					c305.522,13.406,499.478-80.457,610.41-295.347c96.157-186.262,21.47-405.774-15.107-491.506
					c-1.05-2.456-3.13-2.839-4.277-2.852C3481.097,1653.59,3481.078,1653.59,3481.063,1653.59z M3465.311,1651.258h0.049H3465.311z"
					/>
			</g>
		</g>
		<g>
			<g>
				<path style="fill:#FFFFFF;" d="M2396.552,2845.301c83.806,141.833,500.129,183.561,500.129,183.561
					c62.09,3.862,117.911,2.658,168.064-2.708c454.97-48.541,444.625-440.468,433.639-544.87
					c-1.073-10.195-13.543-14.453-20.744-7.156c-154.319,156.389-247.79,64.693-419.215,0.941c-0.05-0.05-0.1-0.05-0.1-0.05
					c-72.823-27.083-159.688-49.1-271.279-44.938C2402.921,2444.375,2396.552,2845.301,2396.552,2845.301z"/>
			</g>
			<g>
				<path style="fill:#FF395E;" d="M3226.79,2856.033c0,0-57.175,49.15-189.479,58.127c0,0,19.66,41.025,117.108,49.552
					c0,0.501-0.351,33.502-89.674,62.441c454.97-48.541,444.625-440.468,433.639-544.87c-1.073-10.195-13.543-14.453-20.744-7.156
					c-154.319,156.389-247.79,64.693-419.215,0.941c3.16,1.906,104.519,63.344,139.727,156.579
					c-2.207-1.605-65.601-46.091-188.526,24.174c0,0,84.909,1.806,136.718,40.223c0,0-46.442,4.464-89.373,17.905
					c0,0,29.49,26.782,79.543,39.32c0,0-55.419,19.66-95.643,23.221C3040.872,2776.49,3073.07,2859.644,3226.79,2856.033z"/>
			</g>
			<g style="opacity:0.25;">
				<path style="fill:#6B1A4E;" d="M2396.552,2845.301c3.611,6.119,7.874,12.087,12.689,17.854
					c133.257,105.623,458.853,138.273,458.853,138.273c62.09,3.862,117.911,2.658,168.064-2.708
					c313.308-33.402,405.941-229.702,429.663-382.82c-46.943,123.477-151.513,243.544-377.404,269.022
					c-47.395,5.366-100.206,6.57-158.936,2.708c0,0-393.754-41.728-472.996-183.561c0,0,0.652-43.834,14.695-103.065
					C2398.659,2715.554,2396.552,2845.301,2396.552,2845.301z"/>
			</g>
			<g>
				<path style="fill:#000072;" d="M2967.474,3043.643c-23.174,0-47.007-0.757-71.563-2.275
					c-17.729-1.768-424.102-44.058-510.161-189.666c-1.177-1.99-1.777-4.268-1.743-6.58c0.068-4.207,2.217-104.204,52.466-207.539
					c46.763-96.172,145.464-212.412,350.107-220.029c163.042-6.133,274.839,42.998,364.697,82.429
					c119.028,52.224,197.666,86.719,317.451-34.675c6.792-6.877,16.685-9.158,25.781-5.967c9.072,3.181,15.332,11.091,16.338,20.647
					c8.267,78.555,12.974,276.426-121.484,416.799C3295.897,2994.371,3154.164,3043.643,2967.474,3043.643z M2409.218,2842.005
					c83.97,132.371,484.653,173.965,488.721,174.373c214.209,13.242,373.584-32.815,473.315-136.936
					c126.841-132.419,122.578-320.686,114.722-396.191c-131.421,133.301-225.586,91.997-344.771,39.695
					c-87.51-38.398-196.465-86.184-353.687-80.332c-154.009,5.732-264.409,74.768-328.13,205.188
					C2416.449,2735.684,2410.096,2823.548,2409.218,2842.005z"/>
			</g>
		</g>
		<g>
			<g>
				<path style="fill:#FFFFFF;" d="M2267.457,2974.395c0,0-2.257,436.685,473.899,441.751c8.025,0.15,16.2,0.1,24.475-0.05
					c373.906-7.38,458.077-209.714,476.348-283.336c2.698-10.87-7.697-20.421-18.308-16.837
					c-47.351,15.993-159.356,35.236-261.64-87.061c-16.852-20.112-35.709-40.424-56.473-59.933c0-0.05,0-0.05,0-0.05
					C2761.116,2832.612,2525.948,2732.104,2267.457,2974.395z"/>
			</g>
			<g>
				<path style="fill:#FF395E;" d="M2741.356,3416.146c8.025,0.15,16.2,0.1,24.475-0.05
					c373.906-7.38,458.077-209.714,476.348-283.336c2.698-10.87-7.697-20.421-18.308-16.837
					c-47.351,15.993-159.356,35.236-261.64-87.061c-16.84-20.098-35.683-40.396-56.43-59.894c-0.007-0.007-0.029-0.017-0.025-0.008
					c1.5,2.631,37.049,65.511,49.333,131.971c0,0.001,0.001,0.002,0,0.001c-0.018-0.013-27.751-19.661-80.444-24.124
					c-0.001,0-0.002-0.001-0.002,0c0.028,0.032,48.251,55.426,69.711,87.615c0.001,0.001,0.003,0.003,0.002,0.003
					c-0.072-0.01-63.537-8.92-141.231,4.463c-0.001,0-0.002,0-0.001,0c0.03,0.018,85.817,51.462,117.057,80.696c0,0,0,0,0,0
					c-0.012,0.004-49.157,15.848-129.59,17.604c-0.004,0-0.009-0.002-0.007,0c0.14,0.111,72.457,57.227,113.543,63.042
					c0.002,0,0.005-0.001,0.004,0.001C2904.104,3330.317,2870.606,3387.028,2741.356,3416.146z"/>
			</g>
			<g style="opacity:0.25;">
				<path style="fill:#6B1A4E;" d="M2267.457,2974.395c0,0-0.301,59.332,23.171,134.511
					c49.501,122.575,165.406,265.913,437.036,268.822c8.024,0.151,16.199,0.101,24.475-0.05
					c272.633-5.366,391.246-114.4,442.553-201.616c-59.281,55.219-159.237,104.519-327.501,107.83
					c-7.072,0.15-14.093,0.15-21.014,0.05c-409.05-4.364-407.145-379.51-407.145-379.51c32.198-30.192,63.945-54.115,95.141-72.722
					C2450.367,2844.448,2360.392,2887.279,2267.457,2974.395z"/>
			</g>
			<g>
				<path style="fill:#000072;" d="M2749.76,3428.787c-152.461,0-273.33-42.996-359.497-127.922
					c-134.805-132.866-135.4-318.682-135.361-326.528c0.02-3.442,1.45-6.726,3.965-9.082
					c113.701-106.592,232.593-156.921,353.555-149.597c172.163,10.437,299.092,133.013,359.434,205.151
					c94.761,113.296,196.064,100.791,248.027,83.25c9.263-3.125,19.463-0.95,26.65,5.662c7.183,6.611,10.181,16.604,7.832,26.074
					c0,0.002,0,0.002,0,0.002c-9.297,37.454-35.796,109.727-108.779,172.961c-88.091,76.316-215.781,116.646-379.526,119.868
					C2760.594,3428.734,2755.145,3428.787,2749.76,3428.787z M2280.111,2979.74c1.177,30.874,12.871,190.198,127.949,303.457
					c84.199,82.871,204.424,123.35,357.5,120.356c157.729-3.103,280.063-41.375,363.604-113.75
					c67.759-58.704,92.275-125.469,100.864-160.044l0,0c0.063-0.256,0.229-0.935-0.483-1.592c-0.723-0.664-1.392-0.432-1.646-0.349
					c-46.709,15.767-167.051,38.479-275.283-90.92c-57.749-69.043-178.936-186.343-341.714-196.208
					C2498.602,2833.895,2387.323,2880.657,2280.111,2979.74z M3242.196,3132.777h0.049H3242.196z"/>
			</g>
		</g>
		<g>
			<g>
				<path style="fill:#FFFFFF;" d="M1721.94,3403.808c-167.462,24.926-240.084-20.412-233.815-67.306
					c1.956-14.494,9.279-25.779,18.507-34.355c0.05-0.05,0.05-0.1,0.05-0.1c20.613-19.209,50.555-25.328,50.555-25.328
					c-1.605-1.805-3.16-3.661-4.714-5.467c-42.43-50.153-63.494-100.056-70.415-147.501c-9.73-65.801,7.724-126.788,32.8-176.891
					c39.872-79.694,99.053-131.753,99.053-131.753c23.021,44.336,48.799,95.442,73.475,148.604
					c46.392,100.156,88.771,207.785,101.56,291.692C1801.232,3335.7,1786.337,3394.229,1721.94,3403.808z"/>
			</g>
			<g>
				<path style="fill:#FF395E;" d="M1721.94,3403.808c-167.462,24.926-240.084-20.412-233.815-67.306
					c6.269-46.943,69.111-59.783,69.111-59.783c-1.605-1.805-3.16-3.661-4.714-5.467c0,0,31.847-36.211,90.978-14.194
					c59.131,22.068,84.157-11.234,124.681-7.122c7.523,0.752,14.494,2.708,20.814,5.467
					C1801.232,3335.7,1786.337,3394.229,1721.94,3403.808z"/>
			</g>
			<g>
				<path style="fill:#FF395E;" d="M1595.102,3147.725c-29.44,28.236-77.086,35.358-112.995-23.973
					c-9.73-65.801,7.724-126.788,32.8-176.891c4.664-6.219,9.68-10.984,14.946-13.341c0,0-26.23,78.741-14.294,138.123
					c11.886,59.432,56.673,67.456,69.212,35.308c12.538-32.148-19.51-41.928-34.004-22.117c0.552-1.605,10.933-29.841,38.217-22.168
					C1616.969,3070.589,1624.743,3119.238,1595.102,3147.725z"/>
			</g>
			<g style="opacity:0.25;">
				<path style="fill:#6B1A4E;" d="M1721.94,3403.808c-167.462,24.926-240.084-20.412-233.815-67.306
					c1.956-14.494,9.279-25.779,18.507-34.355c-1.153,2.759-23.873,58.529,82.502,60.937
					c109.033,2.458,190.432-64.046,34.857-88.872l-71.469-2.959c0,0,115.603-94.639,56.021-298.412c0,0,33.302-4.564,78.891-9.128
					c46.392,100.156,88.771,207.785,101.56,291.692C1801.232,3335.7,1786.337,3394.229,1721.94,3403.808z"/>
			</g>
			<g>
				<path style="fill:#000072;" d="M1555.125,3264.382c27.016-2.135,53.597-0.135,80.327,2.971
					c8.726,1.052,17.402,2.359,26.042,3.753c3.093,0.498,5.198,3.411,4.697,6.504c-0.461,2.865-2.998,4.882-5.823,4.766
					c-33.647-0.848-68.084-0.053-101.047,6.733C1542.004,3292.664,1537.556,3266.769,1555.125,3264.382L1555.125,3264.382z"/>
			</g>
			<g>
				<path style="fill:#000072;" d="M1561.411,3331.584c-2.038,15.351-0.253,31.738,3.535,46.763
					c1.254,5.09,2.877,10.074,4.583,14.976c2.29,6.594-1.199,13.796-7.793,16.086c-7.615,2.766-16.101-2.751-16.733-10.803
					c-2.182-23.565-0.698-47.535,8.083-69.748C1555.13,3323.935,1562.652,3326.443,1561.411,3331.584L1561.411,3331.584z"/>
			</g>
			<g>
				<path style="fill:#000072;" d="M1647.666,3334.268c-2.04,15.348-0.255,31.739,3.535,46.76c1.249,5.093,2.881,10.073,4.58,14.978
					c2.292,6.592-1.196,13.794-7.791,16.084s-13.796-1.196-16.086-7.791c-1.544-6.796-1.35-13.918-1.558-20.818
					c0.056-17.801,2.341-35.269,8.992-51.943c0.93-2.236,3.496-3.296,5.733-2.366
					C1647.121,3330.019,1648.119,3332.206,1647.666,3334.268L1647.666,3334.268z"/>
			</g>
			<g>
				<path style="fill:#000072;" d="M1634.623,3423.35c-64.961,0-114.287-13.413-140.449-39.187
					c-14.282-14.07-20.84-31.592-18.472-49.343c4.971-37.302,38.057-56.064,59.844-64.485
					c-95.684-120.078-74.004-237.839-37.749-316.787c40.303-87.766,105.151-145.432,107.896-147.844
					c2.886-2.546,6.797-3.621,10.586-2.91c3.789,0.708,7.041,3.118,8.818,6.538c153.769,295.593,208.33,478.848,166.807,560.237
					c-13.384,26.238-36.299,41.936-68.1,46.665C1691.708,3421.004,1661.796,3423.35,1634.623,3423.35z M1610.57,2835.811
					c-20.215,20.479-62.212,67.39-90.298,128.882c-49.995,109.451-34.38,211.658,46.406,303.782
					c2.944,3.359,3.882,8.035,2.451,12.271c-1.426,4.233-4.995,7.39-9.375,8.281c-0.518,0.107-54.214,11.702-59.199,49.109
					c-1.338,10.037,2.436,19.512,11.216,28.164c11.616,11.438,60.947,47.043,208.34,25.129
					c23.657-3.516,39.829-14.395,49.453-33.257C1805.966,3286.832,1752.465,3111.112,1610.57,2835.811z"/>
			</g>
		</g>
		<g>
			<g>
				<path style="fill:#FFFFFF;" d="M2378.045,3403.808c167.462,24.926,240.084-20.412,233.815-67.306
					c-1.956-14.494-9.279-25.779-18.507-34.355c-0.05-0.05-0.05-0.1-0.05-0.1c-20.613-19.209-50.555-25.328-50.555-25.328
					c1.605-1.805,3.16-3.661,4.714-5.467c42.43-50.153,63.494-100.056,70.415-147.501c9.73-65.801-7.724-126.788-32.8-176.891
					c-39.872-79.694-99.053-131.753-99.053-131.753c-23.021,44.336-48.799,95.442-73.475,148.604
					c-46.392,100.156-88.771,207.785-101.56,291.692C2298.753,3335.7,2313.649,3394.229,2378.045,3403.808z"/>
			</g>
			<g>
				<path style="fill:#FF395E;" d="M2378.045,3403.808c167.462,24.926,240.084-20.412,233.815-67.306
					c-6.269-46.943-69.111-59.783-69.111-59.783c1.605-1.805,3.16-3.661,4.714-5.467c0,0-31.847-36.211-90.978-14.194
					c-59.131,22.068-84.157-11.234-124.681-7.122c-7.523,0.752-14.494,2.708-20.814,5.467
					C2298.753,3335.7,2313.649,3394.229,2378.045,3403.808z"/>
			</g>
			<g>
				<path style="fill:#FF395E;" d="M2504.883,3147.725c29.44,28.236,77.086,35.358,112.995-23.973
					c9.73-65.801-7.724-126.788-32.8-176.891c-4.664-6.219-9.679-10.984-14.946-13.341c0,0,26.23,78.741,14.294,138.123
					c-11.886,59.432-56.673,67.456-69.212,35.308c-12.538-32.148,19.51-41.928,34.004-22.117
					c-0.552-1.605-10.933-29.841-38.217-22.168C2483.017,3070.589,2475.242,3119.238,2504.883,3147.725z"/>
			</g>
			<g style="opacity:0.25;">
				<path style="fill:#6B1A4E;" d="M2378.045,3403.808c167.462,24.926,240.084-20.412,233.815-67.306
					c-1.956-14.494-9.279-25.779-18.507-34.355c1.154,2.759,23.873,58.529-82.502,60.937
					c-109.033,2.458-190.432-64.046-34.857-88.872l71.469-2.959c0,0-115.603-94.639-56.021-298.412c0,0-33.302-4.564-78.891-9.128
					c-46.392,100.156-88.771,207.785-101.56,291.692C2298.753,3335.7,2313.649,3394.229,2378.045,3403.808z"/>
			</g>
			<g>
				<path style="fill:#000072;" d="M2540.613,3289.097c-32.952-6.772-67.361-7.57-100.996-6.721c-3.154,0.12-5.81-2.354-5.894-5.512
					c-0.081-2.878,2-5.313,4.766-5.757c8.643-1.394,17.319-2.7,26.045-3.752c21.975-2.664,44.127-4.23,66.333-3.745
					c4.602,0.127,8.843,0.259,13.994,0.774c6.907,0.691,11.946,6.851,11.255,13.76
					C2555.425,3285.682,2547.944,3290.954,2540.613,3289.097L2540.613,3289.097z"/>
			</g>
			<g>
				<path style="fill:#000072;" d="M2546.899,3328.857c8.782,22.211,10.266,46.185,8.084,69.749
					c-0.628,6.953-6.773,12.08-13.723,11.453c-6.953-0.627-12.08-6.772-11.453-13.726c6.499-20.694,11.917-42.924,8.766-64.749
					C2537.403,3326.366,2544.81,3323.948,2546.899,3328.857L2546.899,3328.857z"/>
			</g>
			<g>
				<path style="fill:#000072;" d="M2460.647,3331.538c8.777,22.212,10.267,46.186,8.081,69.751
					c-0.628,6.951-6.77,12.078-13.723,11.45c-6.951-0.627-12.078-6.772-11.45-13.723c6.494-20.693,11.918-42.926,8.764-64.749
					C2451.152,3329.045,2458.555,3326.629,2460.647,3331.538L2460.647,3331.538z"/>
			</g>
			<g>
				<path style="fill:#000072;" d="M2465.36,3423.35c-27.178,0-57.075-2.346-89.18-7.117c-31.802-4.729-54.717-20.43-68.101-46.667
					c-41.528-81.392,13.037-264.646,166.812-560.234c1.777-3.42,5.029-5.83,8.818-6.538c3.789-0.71,7.695,0.364,10.586,2.91
					c2.744,2.412,67.593,60.078,107.896,147.844c36.25,78.948,57.93,196.709-37.749,316.787
					c21.787,8.42,54.873,27.183,59.844,64.485c2.368,17.751-4.194,35.276-18.477,49.343
					C2579.647,3409.937,2530.311,3423.35,2465.36,3423.35z M2489.418,2835.811c-141.899,275.295-195.4,451.016-159.004,522.361
					c9.624,18.862,25.801,29.741,49.458,33.257c147.378,21.914,196.733-13.694,208.34-25.129
					c8.784-8.652,12.559-18.127,11.221-28.164c-5.02-37.644-58.657-48.999-59.199-49.109c-4.38-0.891-7.949-4.048-9.375-8.281
					c-1.431-4.236-0.493-8.911,2.451-12.271c80.786-92.124,96.396-194.331,46.406-303.782
					C2551.625,2903.201,2509.633,2856.29,2489.418,2835.811z"/>
			</g>
		</g>
		<g>
			<g>
				<path style="fill:#FFFFFF;" d="M2433.415,3365.541c-17.905,61.337-190.382,68.81-288.733,33.051c0,0-48.749,7.172-94.539,7.172
					h-0.151c-45.74,0-94.389-7.172-94.389-7.172c-98.351,35.759-270.828,28.286-288.733-33.051
					c-2.959-10.131-3.109-19.409-1.404-27.785c7.272-36.612,49.702-56.272,49.702-56.272
					c-133.709-233.464-124.43-442.553-94.79-573.955c20.312-89.925,50.103-143.438,50.103-143.438l200.463-13.843l179.048-12.388
					h0.301l379.56,26.23c0,0,180.552,324.141-44.687,717.393C2385.167,3281.484,2449.213,3311.175,2433.415,3365.541z"/>
			</g>
			<g>
				<path style="fill:#FF395E;" d="M1613.973,2974.402c0,0,28.852,108.677,93.174,136.386s99.181-17.876,76.835-50.948
					s-52.735-8.938-43.35,17.876c0,0-21.899-29.496,4.022-50.948c25.921-21.452,77.316,3.128,84.913,50.054
					c7.598,46.926-17.429,97.427-99.214,91.617c-81.785-5.81-93.175-64.873-93.175-64.873S1607.533,3008.289,1613.973,2974.402z"/>
			</g>
			<g>
				<path style="fill:#FF395E;" d="M1641.864,2655.832c0,0-27.708,160.888,8.044,226.137c35.753,65.249,79.55,51.842,83.125,10.726
					c0,0,23.239,44.393-5.959,71.208c-29.886,27.447-113.813,3.575-117.984-101.3
					C1604.919,2757.728,1624.583,2714.824,1641.864,2655.832z"/>
			</g>
			<g>
				<path style="fill:#FF395E;" d="M2486.328,2974.402c0,0-28.852,108.677-93.174,136.386
					c-64.321,27.708-99.18-17.876-76.835-50.948s52.735-8.938,43.35,17.876c0,0,21.899-29.496-4.022-50.948
					c-25.921-21.452-77.316,3.128-84.913,50.054c-7.598,46.926,17.429,97.427,99.214,91.617s93.175-64.873,93.175-64.873
					S2492.768,3008.289,2486.328,2974.402z"/>
			</g>
			<g>
				<path style="fill:#FF395E;" d="M2458.437,2655.832c0,0,27.708,160.888-8.044,226.137c-35.753,65.249-79.55,51.842-83.125,10.726
					c0,0-23.239,44.393,5.959,71.208c29.886,27.447,113.813,3.575,117.984-101.3
					C2495.382,2757.728,2475.718,2714.824,2458.437,2655.832z"/>
			</g>
			<g>
				<path style="fill:#FF395E;" d="M1705.141,3263.569c0,0,52.324-46.417,102.974-30.328s79.252,24.555,113.217,13.469
					s50.895,3.488,52.267,24.559c1.372,21.07,53.8,141.797-91.297,144.544c-145.097,2.747-220.774-14.534-214.815-68.759
					s47.67-65.547,47.67-65.547L1705.141,3263.569z"/>
			</g>
			<g>
				<path style="fill:#FF395E;" d="M2395.16,3263.569c0,0-52.324-46.417-102.974-30.328s-79.252,24.555-113.218,13.469
					s-50.895,3.488-52.267,24.559c-1.372,21.07-53.8,141.797,91.297,144.544c145.097,2.747,220.774-14.534,214.815-68.759
					c-5.959-54.225-47.671-65.547-47.671-65.547L2395.16,3263.569z"/>
			</g>
			<g style="opacity:0.25;">
				<path style="fill:#6B1A4E;" d="M2192.679,3336.502c-7.323-35.609,38.819-52.962,69.011-60.435
					c-91.781,12.889-75.932-53.112-72.622-134.913c0.79-19.353,3.217-36.98,6.526-52.711c9.848-46.81,38.451-87.764,78.735-113.559
					c171.405-109.755,204.488-263.547,205.277-267.355c-20.312-89.925-50.103-143.438-50.103-143.438l-200.463-13.843
					c-0.613,1.583-1.231,3.181-1.855,4.795c-62.601,161.948-291.783,161.948-354.384,0c-0.624-1.615-1.243-3.213-1.855-4.795
					l-200.463,13.843c0,0-29.791,53.513-50.103,143.438c0.789,3.807,33.864,157.562,205.212,267.314
					c41.476,26.566,70.087,69.21,79.602,117.538c2.898,14.718,5,31.02,5.724,48.774c3.31,81.8,19.159,147.802-72.622,134.913
					c30.192,7.473,76.333,24.826,69.011,60.435c-9.73,47.545-226.492,46.693-241.839,1.254c-1.705,8.375-1.555,17.654,1.404,27.785
					c17.905,61.337,190.382,68.81,288.733,33.051c0,0,48.649,7.172,94.389,7.172c45.74,0,94.388-7.172,94.388-7.172
					c98.351,35.759,270.828,28.286,288.733-33.051c2.959-10.131,3.109-19.409,1.404-27.785
					C2419.171,3383.195,2202.409,3384.048,2192.679,3336.502z"/>
			</g>
			<g>
				<path style="fill:#000072;" d="M1937.905,3391.25c28.49-14.816,27.378-52.453,26.098-80.671
					c-1.291-34.883-3.947-70.078-6.464-105.196c-4.754-70.382-12.587-140.524-15.97-211.038c-0.156-3.325,2.415-6.147,5.74-6.301
					c3.071-0.144,5.715,2.051,6.223,5.002c5.977,34.893,10.239,69.951,14.155,105.061c8.336,79.449,18.74,158.574,20.892,238.65
					c0.293,30.401-12.264,65.905-42.767,78.289C1929.987,3419.834,1922.336,3396.886,1937.905,3391.25L1937.905,3391.25z"/>
			</g>
			<g>
				<path style="fill:#000072;" d="M2154.487,3415.046c-41.104-17.472-45.533-66.824-41.911-105.505
					c2.082-35.63,5.26-70.806,8.739-106.018c7.507-70.322,13.858-140.665,25.451-210.476c0.562-3.281,3.68-5.486,6.961-4.924
					c3.03,0.52,5.139,3.23,5.005,6.223c-1.57,35.295-4.514,70.461-7.559,105.598c-6.04,78.605-14.235,157.64-15.262,236.333
					c0.197,20.935,6.865,45.296,26.483,54.973C2177.924,3396.794,2170.335,3419.889,2154.487,3415.046L2154.487,3415.046z"/>
			</g>
			<g>
				<path style="fill:#000072;" d="M1700.916,3275.027c51.645-25.18,114.832-16.734,163.779,10.69
					c6.793,3.827,13.21,8.391,19.666,12.735c1.885,1.326,2.336,3.928,1.011,5.813c-1.106,1.572-3.103,2.146-4.829,1.523
					c-20.679-8.095-41.964-16.072-63.87-19.895c-34.354-6.662-71.599-4.292-103.296,10.895
					C1698.651,3305.076,1686.236,3283.54,1700.916,3275.027L1700.916,3275.027z"/>
			</g>
			<g>
				<path style="fill:#000072;" d="M1745.925,3335.82c-8.008,21.147-6.039,46.496,5.972,65.764
					c9.013,15.934-15.505,27.95-22.532,11.008c-7.988-20.065-9.077-42.81-2.543-63.32c2.119-6.738,4.658-12.842,8.515-19.29
					c1.709-2.859,5.415-3.792,8.274-2.08C1746.392,3329.552,1747.258,3333.017,1745.925,3335.82L1745.925,3335.82z"/>
			</g>
			<g>
				<path style="fill:#000072;" d="M1840.225,3339.397c-8.008,21.145-6.04,46.494,5.97,65.762
					c8.954,16.008-15.402,27.948-22.53,11.01c-7.992-20.065-9.076-42.811-2.544-63.32c2.119-6.738,4.656-12.844,8.513-19.292
					c1.711-2.859,5.415-3.789,8.276-2.08C1840.688,3333.129,1841.556,3336.594,1840.225,3339.397L1840.225,3339.397z"/>
			</g>
			<g>
				<path style="fill:#000072;" d="M2386.924,3296.79c-38.492-18.505-84.172-17.654-124.658-5.884
					c-14.372,3.71-28.572,9.653-42.505,14.881c-4.443,1.674-7.775-4.646-3.821-7.334c9.192-6.51,19.884-13.253,30.12-18.181
					c46.881-22.977,105.413-28.658,153.325-5.245C2414.015,3283.511,2401.732,3305.077,2386.924,3296.79L2386.924,3296.79z"/>
			</g>
			<g>
				<path style="fill:#000072;" d="M2364.966,3329.983c10.903,18.629,14.951,40.202,11.69,61.494
					c-2.331,11.536-5.123,33.885-21.892,28.594c-6.531-2.4-9.878-9.641-7.478-16.172c2.756-5.725,6.309-11.098,8.098-17.332
					c5.559-16.021,4.904-34.956-1.008-50.747C2351.091,3328.887,2360.939,3323.473,2364.966,3329.983L2364.966,3329.983z"/>
			</g>
			<g>
				<path style="fill:#000072;" d="M2270.667,3333.557c10.905,18.631,14.951,40.203,11.692,61.497
					c-2.334,11.537-5.124,33.882-21.895,28.594c-6.531-2.402-9.878-9.644-7.476-16.172c2.752-5.727,6.306-11.1,8.098-17.332
					c5.554-16.02,4.903-34.958-1.01-50.747C2256.796,3332.463,2266.637,3327.045,2270.667,3333.557L2270.667,3333.557z"/>
			</g>
			<g>
				<path style="fill:#000072;" d="M2280.795,3432.586c-47.334,0.002-97.153-7.034-137.402-21.145
					c-11.641,1.589-53.203,6.846-93.242,6.846s-81.602-5.256-93.242-6.846c-82.251,28.838-204.565,28.13-263.638-1.819
					c-20.703-10.5-33.633-24.155-38.418-40.591c-12.778-43.867,18.017-76.509,43.164-92.388
					c-112.046-201.802-117.563-384.421-102.104-502.959c17.1-131.074,61.709-212.327,63.604-215.72
					c2.061-3.704,5.859-6.116,10.088-6.406l379.526-26.221c0.337-0.024,0.645-0.029,1.021-0.029
					c0.386,0.012,0.684,0.007,1.021,0.029l379.526,26.221c4.229,0.291,8.027,2.703,10.088,6.406
					c1.895,3.394,46.504,84.646,63.604,215.72c15.459,118.538,9.941,301.157-102.104,502.959
					c25.146,15.879,55.942,48.521,43.164,92.388c-4.785,16.433-17.71,30.09-38.413,40.588
					C2376.869,3424.915,2330.189,3432.584,2280.795,3432.586z M2144.706,3386.058c1.455,0,2.905,0.254,4.287,0.757
					c75.454,27.434,193.042,27.651,246.699,0.439c14.272-7.236,22.91-15.728,25.684-25.234
					c12.583-43.208-39.312-68.108-41.528-69.148c-3.169-1.487-5.586-4.241-6.646-7.581c-1.055-3.34-0.679-6.975,1.064-10.015
					c114.346-199.653,120.43-380.583,105.4-497.209c-13.804-107.117-47.432-181.199-57.739-201.98l-371.777-25.684l-371.777,25.684
					c-10.308,20.781-43.936,94.863-57.739,201.98c-15.029,116.626-8.945,297.556,105.401,497.209
					c1.748,3.047,2.134,6.689,1.069,10.037c-1.069,3.35-3.491,6.096-6.68,7.571c-2.188,1.028-54.082,25.928-41.499,69.136
					c2.774,9.507,11.416,17.998,25.689,25.237c53.657,27.2,171.24,26.995,246.694-0.442c1.953-0.713,4.058-0.925,6.104-0.623
					c0.479,0.068,48.452,7.017,92.739,7.017c44.287,0,92.261-6.948,92.739-7.017
					C2143.49,3386.102,2144.1,3386.058,2144.706,3386.058z"/>
			</g>
		</g>
		<g>
			<g>
				<path style="fill:#FFFFFF;" d="M2475.443,2667.457l-26.832-53.614c0,0,17.855,145.695-117.108,252.923l-8.927-55.419
					c0,0-103.917,156.729-272.432,217.515c-168.516-60.786-272.433-217.515-272.433-217.515l-8.927,55.419
					c-134.962-107.228-117.108-252.923-117.108-252.923l-26.782,53.614c0,0,0-0.101-0.05-0.301
					c-45.389-164.202,66.503-221.678,66.503-221.678l-45.89-8.927c144.191-134.662,404.687-59.582,404.687-59.582
					s260.496-75.08,404.737,59.582l-45.89,8.927C2408.99,2445.478,2520.982,2503.004,2475.443,2667.457z"/>
			</g>
			<g style="opacity:0.25;">
				<path style="fill:#6B1A4E;" d="M2385.117,2492.271c0,0,33.954,138.523-21.416,215.408c0,0-7.172-58.98-34.906-89.373
					c0,0-45.79,186.521-278.652,315.214c-232.862-128.693-278.652-315.214-278.652-315.214
					c-27.735,30.393-34.906,89.373-34.906,89.373c-55.37-76.885-21.416-215.408-21.416-215.408
					c-103.266,52.912-91.129,168.214-90.326,174.885c0.05,0.2,0.05,0.301,0.05,0.301l26.782-53.614
					c0,0-17.854,145.695,117.108,252.923l8.927-55.419c0,0,103.917,156.729,272.433,217.515
					c168.515-60.786,272.433-217.515,272.433-217.515l8.927,55.419c134.963-107.228,117.108-252.923,117.108-252.923l26.782,53.614
					c0,0,0-0.101,0.05-0.301C2476.246,2660.485,2488.383,2545.183,2385.117,2492.271z"/>
			</g>
			<g>
				<path style="fill:#000072;" d="M2050.15,3041.392c-1.44,0-2.881-0.249-4.253-0.745
					c-131.641-47.476-223.53-150.325-260.562-197.729l-4.17,25.852c-0.708,4.395-3.696,8.086-7.847,9.695
					c-4.15,1.606-8.843,0.896-12.334-1.875c-89.36-71.016-114.438-157.493-120.762-211.787l-4.126,8.257
					c-2.319,4.644-7.232,7.366-12.427,6.873c-5.161-0.5-9.487-4.131-10.874-9.131c-33.711-121.628,15.835-189.06,48.325-218.423
					l-18.081-3.523c-4.624-0.901-8.354-4.319-9.653-8.85c-1.299-4.529,0.049-9.404,3.491-12.62
					c140.288-131.011,380.171-72.358,413.271-63.438c33.096-8.918,272.988-67.568,413.271,63.438
					c3.442,3.215,4.79,8.091,3.491,12.62c-1.299,4.531-5.029,7.949-9.653,8.85l-18.081,3.523
					c32.49,29.363,82.036,96.794,48.325,218.423c-1.387,5-5.713,8.63-10.874,9.131c-5.161,0.486-10.103-2.229-12.427-6.873
					l-4.126-8.254c-6.318,54.297-31.401,140.769-120.762,211.785c-3.491,2.771-8.179,3.481-12.334,1.875
					c-4.15-1.609-7.139-5.3-7.847-9.695l-4.17-25.852c-37.031,47.405-128.921,150.254-260.562,197.729
					C2053.031,3041.143,2051.591,3041.392,2050.15,3041.392z M1777.724,2798.822c4.146,0,8.091,2.058,10.449,5.603
					c1.006,1.521,101.953,151.379,261.977,211.074c160.024-59.695,260.972-209.553,261.978-211.074
					c2.861-4.294,8.062-6.421,13.101-5.317c5.044,1.091,8.906,5.161,9.727,10.254l5.396,33.459
					c109.971-99.927,95.977-226.147,95.811-227.473c-0.742-6.057,2.983-11.768,8.828-13.53c5.825-1.76,12.104,0.94,14.834,6.396
					l10.952,21.914c19.893-126.084-63.696-171.487-67.563-173.508c-4.722-2.468-7.388-7.659-6.621-12.93
					c0.771-5.271,4.761-9.492,9.99-10.51l20.093-3.914c-140.352-105.386-370.63-40.955-373.057-40.259
					c-2.266,0.654-4.668,0.654-6.934,0c-2.427-0.693-232.72-65.125-373.057,40.259l20.093,3.914
					c5.244,1.023,9.268,5.256,10.015,10.547c0.752,5.291-1.934,10.474-6.685,12.915c-3.828,2.002-87.417,47.407-67.524,173.491
					l10.957-21.919c2.725-5.457,8.984-8.157,14.834-6.396c5.845,1.763,9.57,7.476,8.828,13.533
					c-0.156,1.306-13.755,127.832,95.806,227.466l5.396-33.455c0.82-5.093,4.683-9.163,9.727-10.254
					C1775.956,2798.914,1776.844,2798.822,1777.724,2798.822z"/>
			</g>
		</g>
		<g>
			<g>
				<path style="fill:#FFFEFF;" d="M2829.927,2030.61c0,0,15.648,6.72,41.577,10.281c0,0-177.542,384.074-816.396,407.395
					c-1.705,0.1-3.41,0.151-5.116,0.201c-638.001-21.315-818.703-401.578-821.461-407.546c-0.05-0.05-0.05-0.05-0.05-0.05
					c25.929-3.561,41.577-10.281,41.577-10.281c-40.674-23.672-51.407-63.895-51.407-63.895c19.209,0,59.883-4.464,59.883-4.464
					c-21.014-17.453-24.575-49.2-24.575-49.2c46.442-20.563,77.738-38.418,77.738-38.418
					c12.538-128.693,38.468-246.102,38.468-246.102c-90.427-432.021-20.312-660.519,29.44-758.218
					c20.813-40.925,70.516-57.726,111.842-37.715c162.246,78.49,329.758,339.488,329.758,339.488
					c100.106-28.588,208.788-28.588,208.788-28.588s108.682,0,208.788,28.588c0,0,167.512-260.998,329.758-339.488
					c41.326-20.011,91.028-3.21,111.842,37.715c49.752,97.699,119.866,326.197,29.44,758.218c0,0,25.929,117.409,38.468,246.102
					c0,0,31.296,17.854,77.738,38.418c0,0-3.561,31.747-24.575,49.2c0,0,40.674,4.464,59.883,4.464
					C2881.334,1966.715,2870.601,2006.937,2829.927,2030.61z"/>
			</g>
			<g>
				<path style="fill:#FFF3E9;" d="M2881.334,1966.715c-19.209,0-59.883-4.464-59.883-4.464c21.014-17.453,24.575-49.2,24.575-49.2
					c-46.442-20.563-77.738-38.418-77.738-38.418s-174.612-28.312-320.881,49.301c-175.201,92.965-197.755-34.205-397.415-34.205
					c-199.661,0-222.214,127.169-397.415,34.205c-146.269-77.613-320.881-49.301-320.881-49.301s-31.296,17.854-77.738,38.418
					c0,0,3.561,31.747,24.575,49.2c0,0-40.674,4.464-59.883,4.464c0,0,10.733,40.223,51.407,63.895c0,0-15.648,6.72-41.577,10.281
					c0,0,0,0,0.05,0.05c2.751,5.952,182.532,384.14,816.345,407.328c0,0.005,0,0.011,0.001,0.017c1.705,0.1,3.41,0.151,5.116,0.201
					c1.705-0.05,3.41-0.1,5.116-0.201c0-0.006,0-0.012,0-0.017c633.813-23.188,813.594-401.376,816.345-407.328
					c0.05-0.05,0.05-0.05,0.05-0.05c-25.929-3.561-41.577-10.281-41.577-10.281
					C2870.601,2006.937,2881.334,1966.715,2881.334,1966.715z"/>
			</g>
			<g style="opacity:0.25;">
				<path style="fill:#6B1A4E;" d="M2049.993,2346.576c-552.84-37.264-817.349-301.522-821.461-305.634
					c2.758,5.968,183.461,386.231,821.461,407.546c638-21.315,818.703-401.578,821.461-407.546
					C2867.341,2045.054,2602.833,2309.312,2049.993,2346.576z"/>
			</g>
			<g>
				<g>
					<path style="fill:#FF395E;" d="M1552.472,1236.432c0,0-92.934,14.745-35.709,96.746c0,0-9.529,16.45-23.371,42.38
						c-24.024,45.038-60.886,118.663-83.004,184.464c0,0-10.432-50.604-14.043-105.472c-3.561-54.868-15.497-253.876,3.611-380.163
						c15.196-100.708,39.471-137.771,48.749-148.704c2.307-2.758,3.661-3.862,3.661-3.862s83.756,75.531,161.193,231.708
						C1613.558,1153.528,1483.661,1124.74,1552.472,1236.432z"/>
				</g>
				<g>
					<path style="fill:#000072;" d="M1455.999,917.798c38.804,29.284,66.99,68.479,95.587,106.979
						c27.504,39.003,52.013,80.457,73.227,123.197c4.989,9.101-4.063,20.428-13.95,17.81c-18.187-3.426-49.504-6.775-62.414,6.213
						c-10.768,15.582,6.148,42.685,14.709,57.869c3.609,5.947,1.715,13.691-4.23,17.302c-3.5,2.074-7.005,1.845-11.089,3.201
						c-44.955,12.517-45.036,41.854-20.588,75.974c2.667,4.092,2.628,9.177,0.336,13.135c-10.327,17.764-20.188,36.187-30.09,54.402
						c-19.604,36.582-38.53,73.591-55.579,111.418c-8.44,18.967-16.686,37.934-25.693,56.772c-3.025,6.35-13.393,3.35-11.758-4.046
						c9.284-41.39,26.958-80.011,43.962-118.596c17.544-38.43,36.565-75.742,57.474-112.544l0.557,13.467
						c-38.93-53.146-21.765-103.381,44.063-116.292c-0.001,0-8.714,18.96-8.714,18.96c-39.252-60.587-27.225-111.597,53.448-104.741
						c7.082,0.642,13.666,1.506,21.039,3.025l-13.948,17.81c-20.818-41.176-44.181-83.106-69.439-121.596
						c-12.832-19.5-26.259-38.626-40.561-57.061c-14.346-18.328-29.097-36.592-43.599-54.617
						C1444.514,921.325,1450.703,913.829,1455.999,917.798L1455.999,917.798z"/>
				</g>
				<g>
					<path style="fill:#FF395E;" d="M2689.621,1560.007c-34.859-103.683-106.38-226.826-106.38-226.826
						c57.189-82.027-35.737-96.737-35.737-96.737c68.824-111.728-61.098-82.9-61.098-82.9
						c77.445-156.193,161.206-231.726,161.206-231.726s33.369,26.219,52.438,152.546c19.068,126.327,7.15,325.307,3.575,380.172
						S2689.621,1560.007,2689.621,1560.007z"/>
				</g>
				<g style="opacity:0.25;">
					<path style="fill:#6B1A4E;" d="M1552.472,1236.432c0,0-92.934,14.745-35.709,96.746c0,0-9.529,16.45-23.371,42.38
						c-0.552-0.652-1.154-1.354-1.705-2.057c-63.143-78.64,13.14-226.442,8.175-269.323
						c-4.965-42.931-51.056-178.345-51.056-178.345l-0.1-0.15c2.307-2.758,3.661-3.862,3.661-3.862s83.756,75.531,161.193,231.708
						C1613.558,1153.528,1483.661,1124.74,1552.472,1236.432z"/>
				</g>
				<g style="opacity:0.25;">
					<path style="fill:#6B1A4E;" d="M2547.514,1236.432c0,0,92.934,14.745,35.709,96.746c0,0,9.529,16.45,23.371,42.38
						c0.552-0.652,1.154-1.354,1.705-2.057c63.143-78.64-13.14-226.442-8.175-269.323c4.965-42.931,51.056-178.345,51.056-178.345
						l0.101-0.15c-2.307-2.758-3.662-3.862-3.662-3.862s-83.756,75.531-161.192,231.708
						C2486.427,1153.528,2616.324,1124.74,2547.514,1236.432z"/>
				</g>
				<g>
					<path style="fill:#000072;" d="M2651.238,925.84c-44.562,53.839-86.692,110.175-120.59,171.487
						c-10.268,17.364-23.536,43.618-33.006,61.781c-0.001,0.022-13.947-17.809-13.95-17.805
						c85.476-16.899,123.674,24.779,74.486,101.716c0.001,0-8.712-18.96-8.712-18.96c6.712,1.212,12.001,2.759,18.171,4.976
						c55.425,20.005,57.558,68.139,25.888,111.316c0.001,0,0.56-13.467,0.56-13.467c20.905,36.801,39.933,74.115,57.471,112.544
						c17.008,38.586,34.678,77.205,43.965,118.596c1.53,6.916-8.608,10.896-11.797,3.964
						c-17.748-37.633-33.418-75.867-52.471-112.843c-18.715-36.91-38.301-73.842-58.852-109.668
						c-2.456-4.224-2.163-9.287,0.327-13.123c8.291-12.157,15.454-24.735,16.516-38.853c1.686-22.814-24.268-34.992-43.823-38.696
						c-8.6-1.325-13.21-11.631-8.591-18.941c6.435-10.6,12.207-21.567,15.688-32.366c2.425-8.658,4.608-18.834-0.979-25.503
						c-12.94-12.987-44.177-9.62-62.414-6.214c-6.844,1.595-13.707-2.809-15.069-9.712c-0.568-2.857-0.111-5.692,1.121-8.101
						c10.728-21.355,21.919-42.498,34.248-62.988c12.105-20.251,25.366-40.997,38.977-60.205
						c13.967-19.422,28.521-38.416,43.967-56.704c15.505-18.272,31.812-35.781,51.619-50.276c2.422-1.775,5.825-1.248,7.598,1.177
						C2653.146,921.106,2652.91,923.954,2651.238,925.84L2651.238,925.84z"/>
				</g>
			</g>
			<g>
				<path style="fill:#000072;" d="M2049.994,2461.004c-0.142,0-0.278-0.002-0.42-0.007
					c-335.576-11.194-543.73-122.849-659.263-214.546c-125.893-99.919-171.348-196.255-173.223-200.308
					c-1.665-3.606-1.523-7.791,0.381-11.277c1.904-3.486,5.352-5.862,9.287-6.406c5.752-0.791,10.962-1.75,15.557-2.747
					c-27.261-24.888-35.386-54.28-35.786-55.789c-1.006-3.765-0.2-7.781,2.173-10.869c2.373-3.088,6.045-4.9,9.941-4.9
					c9.038,0,23.311-1.06,35.498-2.136c-10.313-17.935-12.534-36.475-12.656-37.549c-0.61-5.444,2.378-10.654,7.388-12.871
					c34.082-15.076,60.103-28.809,71.011-34.751c11.601-114.832,33.608-220.439,37.441-238.359
					c-90.327-433.86-19.331-664.778,31.113-763.887c23.75-46.648,81.377-66.067,128.457-43.291
					c149.663,72.402,300.005,291.316,329.771,336.247c97.949-26.301,198.955-26.611,203.33-26.611
					c4.375,0,105.376,0.31,203.325,26.611c29.766-44.932,180.107-263.845,329.775-336.247
					c47.065-22.781,104.707-3.362,128.457,43.293c50.439,99.109,121.436,330.029,31.108,763.884
					c3.833,17.92,25.845,123.528,37.441,238.359c10.913,5.942,36.929,19.675,71.011,34.751c5.01,2.217,7.998,7.427,7.388,12.871
					c-0.122,1.074-2.344,19.614-12.656,37.549c12.192,1.077,26.465,2.136,35.503,2.136c3.896,0,7.568,1.812,9.941,4.9
					c2.373,3.091,3.179,7.107,2.173,10.869c-0.4,1.509-8.53,30.903-35.791,55.789c4.595,0.996,9.805,1.956,15.557,2.747
					c3.936,0.544,7.383,2.92,9.287,6.406s2.046,7.671,0.381,11.277c-1.875,4.053-47.329,100.388-173.218,200.308
					c-115.532,91.697-323.691,203.352-659.263,214.546C2050.272,2461.002,2050.135,2461.004,2049.994,2461.004z M1247.709,2050.206
					c17.52,30.339,65.801,103.577,159.424,177.581c112.451,88.882,315.244,197.117,642.861,208.132
					c328.491-11.045,531.563-119.8,644.092-209.109c93.086-73.884,140.85-146.443,158.213-176.599
					c-16.816-3.647-26.753-7.852-27.285-8.083c-4.355-1.865-7.29-6.025-7.578-10.757c-0.288-4.729,2.109-9.216,6.206-11.602
					c20.659-12.031,32.7-29.084,39.17-41.277c-19.39-1.252-41.475-3.665-42.72-3.801c-5.005-0.549-9.194-4.038-10.64-8.86
					c-1.45-4.819,0.127-10.039,3.999-13.252c10.703-8.882,15.938-23.035,18.33-32.161c-41.401-18.774-68.516-34.207-69.727-34.9
					c-3.53-2.019-5.864-5.625-6.26-9.673c-12.285-126.423-37.939-243.442-38.193-244.609c-0.386-1.736-0.396-3.533-0.029-5.271
					c89.59-428.032,20.679-653.616-28.374-749.985c-17.588-34.573-60.283-48.967-95.186-32.095
					c-157.178,76.038-323.008,332.395-324.663,334.976c-2.993,4.658-8.706,6.799-13.994,5.283
					c-97.173-27.761-204.292-28.118-205.361-28.118s-108.193,0.356-205.366,28.118c-5.288,1.519-11.001-0.625-13.994-5.283
					c-1.655-2.581-167.485-258.938-324.658-334.976c-34.893-16.877-77.593-2.478-95.195,32.095
					c-49.048,96.367-117.954,321.948-28.369,749.985c0.366,1.738,0.356,3.535-0.029,5.271
					c-0.254,1.167-25.903,118.186-38.193,244.609c-0.396,4.048-2.73,7.654-6.26,9.673c-1.211,0.693-28.325,16.125-69.726,34.9
					c2.388,9.116,7.622,23.276,18.33,32.161c3.872,3.213,5.449,8.433,3.999,13.252c-1.445,4.822-5.635,8.311-10.64,8.86
					c-1.245,0.137-23.33,2.549-42.72,3.801c6.465,12.183,18.506,29.241,39.17,41.277c4.097,2.385,6.494,6.873,6.206,11.602
					s-3.218,8.892-7.573,10.757C1274.437,2042.357,1264.515,2046.558,1247.709,2050.206z"/>
			</g>
		</g>
		<g>
			<g>
				<path style="fill:#FFFFFF;" d="M2765.781,1912.85c-4.514,99.604-65.901,440.747-685.797,540.552
					c-9.88,1.605-19.861,2.407-29.841,2.407c-10.081,0-20.162-0.802-30.142-2.407c-619.895-99.805-681.283-440.948-685.797-540.552
					c-0.251-5.868,0.602-11.636,2.407-17.002c3.561-10.231,10.632-19.159,20.262-24.876c32.65-19.259,76.735-41.025,76.735-41.025
					c-32.198-86.715,24.124-153.72,24.124-153.72c-7.122-352.929,176.44-562.52,250.416-632.433
					c17.855-16.902,46.241-15.648,62.29,2.909c59.632,69.011,88.621,188.827,88.621,188.827
					c92.984-25.879,190.934-27.684,190.934-27.684s97.949,1.806,190.934,27.684c0,0,28.989-119.816,88.621-188.827
					c16.049-18.557,44.436-19.811,62.29-2.909c73.976,69.914,257.538,279.504,250.416,632.433c0,0,56.322,67.005,24.124,153.72
					c0,0,44.084,21.767,76.734,41.025C2757.806,1879.698,2766.533,1895.798,2765.781,1912.85z"/>
			</g>
			<g style="opacity:0.25;">
				<path style="fill:#6B1A4E;" d="M2763.675,1895.848c-16.751,67.456-131.301,419.382-713.531,493.609
					c-582.23-74.227-696.781-426.153-713.532-493.609c-1.805,5.366-2.658,11.134-2.407,17.002
					c4.514,99.604,65.901,440.747,685.797,540.552c9.98,1.605,20.061,2.407,30.142,2.407c10.081,0,20.162-0.802,30.142-2.407
					c619.895-99.805,681.283-440.948,685.796-540.552C2766.333,1906.982,2765.48,1901.214,2763.675,1895.848z"/>
			</g>
			<g style="opacity:0.25;">
				<path style="fill:#6B1A4E;" d="M2267.755,2153.698c0,0-69.232,20.752-129.659,0c-60.427-20.752-59.533-77.063-59.533-77.063
					h-28.413h-28.412c0,0,0.894,56.311-59.533,77.063c-60.427,20.752-129.659,0-129.659,0
					c-12.514,35.053,97.129,67.736,151.525,58.192c54.397-9.545,66.079-103.923,66.079-103.923s11.683,94.378,66.08,103.923
					S2280.269,2188.752,2267.755,2153.698z"/>
			</g>
			<g style="opacity:0.25;">
				<path style="fill:#6B1A4E;" d="M1344.606,1881.558c0,0,66.365,29.324,127.29,12.714c6.493-1.77,8.703-9.867,3.937-14.619
					c-14.261-14.221-38.687-42.514-44.911-74.637l2.681,24.926L1344.606,1881.558z"/>
			</g>
			<g style="opacity:0.15;">
				<path style="fill:#6B1A4E;" d="M2755.695,1881.558c0,0-66.365,29.324-127.29,12.714c-6.493-1.77-8.703-9.867-3.937-14.619
					c14.261-14.221,38.687-42.514,44.911-74.637l-2.681,24.926L2755.695,1881.558z"/>
			</g>
			<g>
				<g>
					<path style="fill:#FF365D;" d="M2182.877,1979.911c22-145.48,102.168-222.83,234.516-230.485
						c47.727-2.761,80.756-6.786,103.124-10.576c21.66-3.67,42.146-12.906,58.536-27.534c1.316-1.174,2.617-2.392,3.893-3.652
						c4.984-4.919,13.427-2.179,14.306,4.768c2.411,19.05,4.848,48.898,0.407,71.078c-0.042,0.211-0.092,0.366-0.136,0.567
						c-11.957,96.783-103.614,173.465-224.057,182.874c-71.645,5.596-115.032,26.057-135.223,38.366
						c-0.73,0.452-21.36,13.306-37.283,31.321c-4.216,4.771-12.026,3.338-14.153-2.663
						C2182.868,2022.86,2179.133,2004.669,2182.877,1979.911z"/>
				</g>
				<g>
					<path style="fill:#FF365D;" d="M1917.108,1979.911c-22-145.48-102.168-222.83-234.516-230.485
						c-47.727-2.761-80.756-6.786-103.124-10.576c-21.66-3.67-42.146-12.906-58.536-27.534c-1.316-1.174-2.617-2.392-3.894-3.652
						c-4.984-4.919-13.427-2.179-14.306,4.768c-2.411,19.05-4.848,48.898-0.407,71.078c0.042,0.211,0.093,0.366,0.136,0.567
						c11.956,96.783,103.614,173.465,224.057,182.874c71.645,5.596,115.032,26.057,135.223,38.366
						c0.73,0.452,21.36,13.306,37.283,31.321c4.216,4.771,12.026,3.338,14.153-2.663
						C1917.117,2022.86,1920.852,2004.669,1917.108,1979.911z"/>
				</g>
				<g>
					<path style="fill:#FF365D;" d="M1790.835,1268.496c-30.474,15.374-115.809,60.24-197.037,119.634
						c-11.828,8.648-27.889-2.614-23.564-16.613c19.521-63.183,65.452-181.011,153.596-258.931
						c7.646-6.759,19.689-3.981,23.828,5.348c10.704,24.125,30.312,70.85,50.698,132.192
						C1800.733,1257.279,1797.565,1265.101,1790.835,1268.496z"/>
				</g>
				<g>
					<path style="fill:#FF395E;" d="M2309.15,1268.496c30.474,15.374,115.809,60.24,197.038,119.634
						c11.828,8.648,27.889-2.614,23.564-16.613c-19.521-63.183-65.452-181.011-153.595-258.931
						c-7.646-6.759-19.689-3.981-23.828,5.348c-10.704,24.125-30.312,70.85-50.698,132.192
						C2299.252,1257.279,2302.42,1265.101,2309.15,1268.496z"/>
				</g>
				<g>
					<path style="fill:#FF365D;" d="M2254.417,1457.057c0,104.269-91.53,188.827-204.425,188.827
						c-112.895,0-204.425-84.558-204.425-188.827c0-74.879,47.194-139.577,115.603-170.12
						c-32.6,27.283-53.463,69.312-53.463,116.456c0,82.301,63.695,149.055,142.285,149.055c78.59,0,142.285-66.754,142.285-149.055
						c0-47.144-20.864-89.173-53.463-116.456C2207.223,1317.48,2254.417,1382.177,2254.417,1457.057z"/>
				</g>
				<g>
					<path style="fill:#FF365D;" d="M1747.395,1418.685c11.191,1.58,18.689,12.438,16.317,23.488
						c-6.049,28.18-11.849,90.277,35.429,144.649c76.887,88.423,101.025,141.701,105.642,212.813
						c0.325,5.008-6.05,7.385-8.978,3.309c-18.37-25.575-62.997-80.334-136.103-125.845
						c-99.068-61.674-112.476-161.273-89.236-210.688C1688.188,1428.728,1722.022,1415.103,1747.395,1418.685z"/>
				</g>
				<g>
					<path style="fill:#FF365D;" d="M2352.591,1418.685c-11.191,1.58-18.689,12.438-16.317,23.488
						c6.049,28.18,11.849,90.277-35.429,144.649c-76.887,88.423-101.024,141.701-105.642,212.813
						c-0.325,5.008,6.05,7.385,8.978,3.309c18.37-25.575,62.997-80.334,136.103-125.845
						c99.069-61.674,112.476-161.273,89.237-210.688C2411.798,1428.728,2377.963,1415.103,2352.591,1418.685z"/>
				</g>
				<g>
					<path style="fill:#FF365D;" d="M1914.522,1661.241c-1.554-0.523-2.757,1.472-1.688,2.782
						c7.597,9.312,23.08,32.457,24.56,67.835c1.969,47.063,0.673,95.576,44.886,92.14
						C2031.797,1820.149,2025.922,1698.727,1914.522,1661.241z"/>
				</g>
				<g>
					<path style="fill:#FF365D;" d="M2185.463,1661.241c1.554-0.523,2.757,1.472,1.688,2.782
						c-7.597,9.312-23.08,32.457-24.56,67.835c-1.969,47.063-0.673,95.576-44.886,92.14
						C2068.189,1820.149,2074.063,1698.727,2185.463,1661.241z"/>
				</g>
				<g>
					<path style="fill:#FF365D;" d="M1684.713,1996.344c-25.068,0.484-147.596-1.881-196.807-91.476
						c-0.643-1.171-2.056-1.656-3.24-1.038c-10.59,5.522-56.504,33.364-37.06,92.555c22.348,68.029,179.35,100.84,239.3,3.734
						C1687.931,1998.458,1686.663,1996.306,1684.713,1996.344z"/>
				</g>
				<g>
					<path style="fill:#FF365D;" d="M1539.536,2112.39c22.271,1.035,91.44-1.52,152.198-64.898c3.263-3.404,8.974-1.604,9.758,3.046
						c3.445,20.444,6.091,65.26-26.854,99.986c-44.704,47.121-125.929,32.786-140.97-31.078
						C1532.793,2115.736,1535.727,2112.213,1539.536,2112.39z"/>
				</g>
				<g>
					<path style="fill:#FF365D;" d="M2415.458,1996.344c25.068,0.484,147.596-1.881,196.807-91.476
						c0.643-1.171,2.056-1.656,3.24-1.038c10.591,5.522,56.504,33.364,37.06,92.555c-22.348,68.029-179.35,100.84-239.3,3.734
						C2412.24,1998.458,2413.508,1996.306,2415.458,1996.344z"/>
				</g>
				<g>
					<path style="fill:#FF365D;" d="M2560.636,2112.39c-22.271,1.035-91.44-1.52-152.198-64.898
						c-3.263-3.404-8.974-1.604-9.758,3.046c-3.445,20.444-6.091,65.26,26.854,99.986c44.704,47.121,125.929,32.786,140.97-31.078
						C2567.378,2115.736,2564.445,2112.213,2560.636,2112.39z"/>
				</g>
			</g>
			<g>
				<g>
					<path style="fill:#000072;" d="M1485.947,1661.226c-33.293,39.783-56.616,93.337-40.397,145.274
						c4.808,16.987,12.543,33.481,22.13,49.248c2.039,3.306,1,7.646-2.322,9.663c-2.961,1.802-6.729,1.143-8.926-1.389
						c-26.413-29.959-43.356-70.629-39.484-111.524c3.669-40.807,25.093-79.649,58.161-103.921
						C1483.383,1642.896,1492.77,1653.964,1485.947,1661.226L1485.947,1661.226z"/>
				</g>
				<g>
					<path style="fill:#000072;" d="M2624.875,1648.577c70.801,53.609,77.437,150.268,18.676,215.444
						c-2.538,2.92-6.962,3.23-9.88,0.694c-2.629-2.285-3.144-6.104-1.367-8.967c9.587-15.767,17.319-32.261,22.131-49.248
						c16.218-51.938-7.106-105.489-40.399-145.273C2607.195,1653.932,2616.686,1642.878,2624.875,1648.577L2624.875,1648.577z"/>
				</g>
				<g>
					<path style="fill:#000072;" d="M1526.18,1759.366c0.081-3.905,3.82-6.681,7.52-5.43c14.639,4.952,54.822,15.167,147.447,20.525
						c142.407,8.238,194.109,102.676,211.2,209.415c0.802,5.008-4.776,8.535-8.936,5.634
						c-20.136-14.04-68.926-40.839-154.937-47.559C1613.657,1932.981,1524.15,1857.685,1526.18,1759.366z"/>
				</g>
				<g>
					<path style="fill:#000072;" d="M2573.805,1759.366c-0.081-3.905-3.82-6.681-7.52-5.43
						c-14.639,4.952-54.823,15.167-147.447,20.525c-142.407,8.238-194.109,102.676-211.2,209.415
						c-0.802,5.008,4.775,8.535,8.936,5.634c20.135-14.04,68.926-40.839,154.937-47.559
						C2486.328,1932.981,2575.835,1857.685,2573.805,1759.366z"/>
				</g>
				<g>
					<path style="fill:#000072;" d="M2049.993,1969.824c-52.119,0-82.343,15.229-98.424,27.818
						c-11.947,9.353-13.242,26.91-2.999,38.104c10.976,11.994,25.179,17.969,34.358,20.774c5.761,1.76,10.751,5.514,14.046,10.557
						c7.696,11.779,24.953,31.905,53.019,31.905c28.066,0,45.323-20.126,53.02-31.905c3.295-5.042,8.285-8.796,14.046-10.557
						c9.475-2.895,24.304-9.169,35.41-21.954c9.544-10.987,7.439-27.919-4.016-36.895
						C2132.38,1985.075,2102.15,1969.824,2049.993,1969.824z"/>
				</g>
				<g>
					<path style="fill:#000072;" d="M2056.614,2093.02c6.482,48.078-11.026,108.955-60.932,126.91
						c-16.634,6.188-34.947,5.974-50.501,4.016c-31.511-3.208-63.699-11.641-91.97-27.458c-14.143-7.72-27.139-16.687-39.597-25.178
						c-12.505-8.479-24.753-16.262-38.159-22.458c-3.571-1.626-5.142-5.852-3.494-9.412c1.433-3.103,4.832-4.673,8.035-3.923
						c30.948,6.985,56.517,27.854,83.349,42.075c26.153,13.817,54.791,21.132,84.238,24.028
						c48.519,7.931,77.18-18.864,88.146-64.657c3.661-14.104,6.187-29.159,7.881-43.778
						C2044.453,2085.665,2055.586,2085.53,2056.614,2093.02L2056.614,2093.02z"/>
				</g>
				<g>
					<path style="fill:#000072;" d="M1919.544,2204.154c0,0-61.119-52.451-109.273-70.777
						c-48.154-18.326-79.022,4.423-58.032,27.173C1773.23,2183.301,1821.384,2199.099,1919.544,2204.154z"/>
				</g>
				<g>
					<path style="fill:#000072;" d="M2056.614,2093.621c11.577,96.413,42.727,126.297,139.482,99.997
						c45.482-10.177,78.586-46.889,124.079-58.103c8.126-1.883,12.248,9.768,4.583,13.319c-13.423,6.194-25.682,13.99-38.2,22.476
						c-12.458,8.491-25.454,17.458-39.597,25.178c-28.271,15.818-60.459,24.25-91.97,27.458c-15.554,1.958-33.867,2.173-50.5-4.016
						c-49.916-17.97-67.396-78.815-60.931-126.909C2044.782,2085.229,2056.129,2085.813,2056.614,2093.621L2056.614,2093.621z"/>
				</g>
				<g>
					<path style="fill:#000072;" d="M2180.627,2204.154c0,0,61.119-52.451,109.273-70.777c48.154-18.326,79.022,4.423,58.032,27.173
						C2326.942,2183.301,2278.788,2199.099,2180.627,2204.154z"/>
				</g>
				<g>
					<ellipse style="fill:#FFFFFF;" cx="2050.15" cy="2002.909" rx="60.482" ry="12.351"/>
				</g>
			</g>
			<g>
				<path style="fill:#000072;" d="M2049.994,2468.365c-10.688,0-21.377-0.854-31.987-2.563
					c-627.476-101.047-691.602-448.342-696.309-552.378c-0.986-21.746,10.059-42.141,28.813-53.23
					c23.657-13.984,52.798-29.023,67.739-36.584c-23.018-76.357,15.376-136.038,26.87-151.594
					c-5.601-352.842,175.869-563.123,254.409-637.351c11.05-10.444,26.157-16.011,41.265-15.227
					c15.278,0.769,29.18,7.544,39.15,19.077c50.151,58.035,78.784,148.655,88.018,181.677
					c89.424-22.942,177.915-24.817,181.802-24.888c4.326,0.071,92.832,1.946,182.256,24.885
					c9.233-33.02,37.866-123.64,88.022-181.672c9.966-11.533,23.867-18.308,39.141-19.08c15.186-0.784,30.225,4.78,41.274,15.227
					c78.54,74.229,260.01,284.509,254.409,637.354c11.494,15.554,49.883,75.234,26.865,151.592
					c14.941,7.561,44.082,22.6,67.744,36.584c18.755,11.089,29.8,31.484,28.813,53.23
					c-4.712,104.036-68.857,451.333-696.313,552.378l-1.992-12.378l1.992,12.378
					C2071.366,2467.51,2060.677,2468.365,2049.994,2468.365z M1737.928,1044.439c-7.91,0-15.376,2.966-21.172,8.447
					c-76.441,72.246-253.477,277.581-246.484,623.064c0.063,3.037-0.982,5.994-2.935,8.318
					c-2.08,2.505-51.118,62.805-21.982,141.311c2.236,6.023-0.444,12.761-6.201,15.605c-0.439,0.215-44.063,21.787-75.879,40.596
					c-10.757,6.36-17.09,18.049-16.528,30.51c4.492,99.253,66.46,430.715,675.244,528.755c18.589,2.988,37.422,2.988,56.001,0
					c608.77-98.037,670.752-429.502,675.249-528.755c0.562-12.461-5.771-24.15-16.528-30.51
					c-31.841-18.818-75.444-40.381-75.884-40.596c-5.762-2.844-8.438-9.583-6.201-15.605
					c29.136-78.506-19.897-138.806-21.997-141.335c-1.929-2.319-2.979-5.278-2.915-8.293
					c6.992-345.483-170.044-550.818-246.484-623.064c-6.187-5.847-14.268-8.821-22.783-8.406
					c-8.374,0.422-15.981,4.128-21.431,10.432c-56.909,65.847-85.625,182.417-85.908,183.586c-0.801,3.303-2.91,6.143-5.845,7.864
					c-2.925,1.719-6.426,2.175-9.712,1.265c-90.249-25.166-186.826-27.234-187.788-27.251c-0.503,0.017-97.08,2.085-187.334,27.251
					c-3.301,0.911-6.792,0.454-9.717-1.265c-2.93-1.721-5.039-4.561-5.84-7.864c-0.283-1.169-28.999-117.739-85.903-183.586
					c-5.449-6.304-13.061-10.01-21.435-10.432C1738.998,1044.454,1738.461,1044.439,1737.928,1044.439z"/>
			</g>
		</g>
	</g>
</g>
</svg>
